<svg width="38" height="38" viewBox="0 0 38 38" fill="none" xmlns="http://www.w3.org/2000/svg">
<path d="M22.5 12H15.5C11.1565 12 10.25 12.9065 10.25 17.25V36.5H27.75V17.25C27.75 12.9065 26.8435 12 22.5 12Z" stroke="#01A85A" stroke-width="3" stroke-linejoin="round"/>
<path d="M17.25 19L20.75 19M17.25 24.25H20.75M17.25 29.5H20.75" stroke="#01A85A" stroke-width="3" stroke-linecap="round" stroke-linejoin="round"/>
<path d="M34.75 36.5V12.3249C34.75 10.1754 34.75 9.1006 34.2273 8.23691C33.7046 7.37321 32.7632 6.89257 30.8805 5.93128L23.2826 2.05188C21.2518 1.01498 20.75 1.38041 20.75 3.65028V11.4811" stroke="#01A85A" stroke-width="3" stroke-linecap="round" stroke-linejoin="round"/>
<path d="M3.25 36.5V20.75C3.25 19.3022 3.55217 19 5 19H10.25" stroke="#01A85A" stroke-width="3" stroke-linecap="round" stroke-linejoin="round"/>
<path d="M36.5 36.5L1.5 36.5" stroke="#01A85A" stroke-width="3" stroke-linecap="round" stroke-linejoin="round"/>
</svg>
