<svg width="124" height="127" viewBox="0 0 124 127" fill="none" xmlns="http://www.w3.org/2000/svg">
<path d="M77.75 41H53.25C38.0477 41 34.875 44.1728 34.875 59.375V126.75H96.125V59.375C96.125 44.1727 92.9523 41 77.75 41Z" stroke="#C1C1C1" stroke-opacity="0.3" stroke-width="8" stroke-linejoin="round"/>
<path d="M59.375 65.5L71.625 65.5M59.375 83.875H71.625M59.375 102.25H71.625" stroke="#C1C1C1" stroke-opacity="0.3" stroke-width="8" stroke-linecap="round" stroke-linejoin="round"/>
<path d="M120.625 126.75V42.137C120.625 34.6137 120.625 30.8521 118.795 27.8292C116.966 24.8062 113.671 23.124 107.082 19.7595L80.4892 6.18159C73.3814 2.55242 71.625 3.83143 71.625 11.776V39.1839" stroke="#C1C1C1" stroke-opacity="0.3" stroke-width="8" stroke-linecap="round" stroke-linejoin="round"/>
<path d="M10.375 126.75V71.625C10.375 66.5576 11.4326 65.5 16.5 65.5H34.875" stroke="#C1C1C1" stroke-opacity="0.3" stroke-width="8" stroke-linecap="round" stroke-linejoin="round"/>
<path d="M126.75 126.75L4.25 126.75" stroke="#C1C1C1" stroke-opacity="0.3" stroke-width="8" stroke-linecap="round" stroke-linejoin="round"/>
</svg>
