<svg width="21" height="20" viewBox="0 0 21 20" fill="none" xmlns="http://www.w3.org/2000/svg">
<path d="M10.5957 6.24365V9.86554L11.9539 11.2238" stroke="#A8CB6E" stroke-width="1.5" stroke-linecap="round" stroke-linejoin="round"/>
<path d="M17.4271 13.8978C18.9088 14.6979 19.6496 15.098 19.6496 15.7509C19.6496 16.4039 18.9088 16.804 17.4271 17.6041L16.4181 18.149C15.2802 18.7635 14.7112 19.0707 14.4377 18.8473C13.7677 18.3002 14.8115 16.8883 15.0682 16.3882C15.3285 15.8813 15.3238 15.6114 15.0682 15.1137C14.8115 14.6135 13.7677 13.2017 14.4377 12.6546C14.7112 12.4312 15.2802 12.7384 16.4181 13.3529L17.4271 13.8978Z" stroke="#A8CB6E" stroke-width="1.5"/>
<path d="M11.5249 18.8734C11.2194 18.9045 10.9094 18.9205 10.5957 18.9205C5.59495 18.9205 1.54102 14.8665 1.54102 9.86576C1.54102 4.86497 5.59495 0.811035 10.5957 0.811035C15.5965 0.811035 19.6505 4.86497 19.6505 9.86576C19.6505 10.4859 19.5881 11.0916 19.4693 11.6767" stroke="#A8CB6E" stroke-width="1.5" stroke-linecap="round"/>
</svg>
