<svg width="19" height="20" viewBox="0 0 19 20" fill="none" xmlns="http://www.w3.org/2000/svg">
<path d="M16.1182 3.97998L15.5571 13.0574C15.4137 15.3767 15.342 16.5363 14.7607 17.37C14.4733 17.7822 14.1032 18.1301 13.6741 18.3915C12.8061 18.9203 11.6443 18.9203 9.32061 18.9203C6.99388 18.9203 5.83052 18.9203 4.96194 18.3905C4.53252 18.1286 4.16236 17.7801 3.87504 17.3673C3.2939 16.5322 3.2238 15.3709 3.08359 13.0484L2.53613 3.97998" stroke="#F02E39" stroke-width="1.5" stroke-linecap="round"/>
<path d="M1.17773 3.98019H17.4762M12.9993 3.98019L12.3812 2.70504C11.9706 1.85799 11.7653 1.43447 11.4111 1.17033C11.3326 1.11174 11.2494 1.05963 11.1624 1.0145C10.7702 0.811035 10.2996 0.811035 9.35825 0.811035C8.39329 0.811035 7.91081 0.811035 7.51213 1.02302C7.42377 1.07001 7.33946 1.12423 7.26006 1.18515C6.90181 1.45999 6.70169 1.89901 6.30145 2.77705L5.75302 3.98019" stroke="#F02E39" stroke-width="1.5" stroke-linecap="round"/>
<path d="M7.06348 13.9402L7.06348 8.50735" stroke="#F02E39" stroke-width="1.5" stroke-linecap="round"/>
<path d="M11.5898 13.9399L11.5898 8.50708" stroke="#F02E39" stroke-width="1.5" stroke-linecap="round"/>
</svg>
