<svg width="110" height="114" viewBox="0 0 110 114" fill="none" xmlns="http://www.w3.org/2000/svg">
<path d="M4.4375 53.25C4.4375 30.1512 4.4375 18.6018 12.0619 11.4259C19.6863 4.25 31.9575 4.25 56.5 4.25H61.233C81.2078 4.25 91.1953 4.25 98.1312 9.13674C100.118 10.5369 101.883 12.1973 103.37 14.0677C108.562 20.5956 108.562 29.9956 108.562 48.7955V64.3864C108.562 82.5358 108.563 91.6105 105.69 98.8583C101.073 110.51 91.3075 119.701 78.9275 124.047C71.2268 126.75 61.5849 126.75 42.3011 126.75C31.2818 126.75 25.7722 126.75 21.3718 125.205C14.2975 122.722 8.71735 117.47 6.07878 110.812C4.4375 106.67 4.4375 101.485 4.4375 91.1136V53.25Z" stroke="#C1C1C1" stroke-opacity="0.3" stroke-width="8" stroke-linejoin="round"/>
<path d="M108.562 65.5C108.562 76.7758 99.4216 85.9167 88.1458 85.9167C84.0679 85.9167 79.2603 85.2021 75.2954 86.2645C71.7726 87.2084 69.0209 89.9601 68.077 93.4829C67.0146 97.4478 67.7292 102.255 67.7292 106.333C67.7292 117.609 58.5883 126.75 47.3125 126.75" stroke="#C1C1C1" stroke-opacity="0.3" stroke-width="8" stroke-linecap="round" stroke-linejoin="round"/>
<path d="M32 34.875H74.875" stroke="#C1C1C1" stroke-opacity="0.3" stroke-width="8" stroke-linecap="round" stroke-linejoin="round"/>
<path d="M32 59.375H50.375" stroke="#C1C1C1" stroke-opacity="0.3" stroke-width="8" stroke-linecap="round" stroke-linejoin="round"/>
</svg>
