<svg width="30" height="34" viewBox="0 0 30 34" fill="none" xmlns="http://www.w3.org/2000/svg">
<path d="M2.25 14C2.25 8.34315 2.25 5.51472 4.11719 3.75736C5.98439 2 8.98959 2 15 2H16.1591C21.0509 2 23.4968 2 25.1954 3.19675C25.6821 3.53964 26.1141 3.94629 26.4784 4.40433C27.75 6.00301 27.75 8.30504 27.75 12.9091V16.7273C27.75 21.172 27.75 23.3944 27.0466 25.1694C25.9158 28.0229 23.5243 30.2737 20.4925 31.338C18.6066 32 16.2453 32 11.5227 32C8.82412 32 7.47482 32 6.39717 31.6217C4.66469 31.0135 3.29813 29.7274 2.65195 28.0968C2.25 27.0825 2.25 25.8126 2.25 23.2727V14Z" stroke="#01A85A" stroke-width="3" stroke-linejoin="round"/>
<path d="M27.75 17C27.75 19.7614 25.5114 22 22.75 22C21.7513 22 20.5739 21.825 19.603 22.0852C18.7402 22.3164 18.0664 22.9902 17.8352 23.853C17.575 24.8239 17.75 26.0013 17.75 27C17.75 29.7614 15.5114 32 12.75 32" stroke="#01A85A" stroke-width="3" stroke-linecap="round" stroke-linejoin="round"/>
<path d="M9 9.5H19.5" stroke="#01A85A" stroke-width="3" stroke-linecap="round" stroke-linejoin="round"/>
<path d="M9 15.5H13.5" stroke="#01A85A" stroke-width="3" stroke-linecap="round" stroke-linejoin="round"/>
</svg>
