<svg width="20" height="20" viewBox="0 0 20 20" fill="none" xmlns="http://www.w3.org/2000/svg">
<path d="M3.52738 5.33862L2.42382 6.07433C1.63272 6.60173 1.23717 6.86543 1.02281 7.2676C0.808443 7.66976 0.810031 8.1424 0.813207 9.08768C0.81703 10.2258 0.827612 11.3854 0.8569 12.5588C0.926387 15.3426 0.961131 16.7346 1.98465 17.7581C3.00816 18.7817 4.4189 18.8169 7.24038 18.8874C8.99567 18.9313 10.7354 18.9313 12.4907 18.8874C15.3121 18.8169 16.7229 18.7817 17.7464 17.7581C18.7699 16.7346 18.8047 15.3426 18.8741 12.5588C18.9034 11.3854 18.914 10.2258 18.9178 9.08768C18.921 8.14239 18.9226 7.66975 18.7082 7.26759C18.4938 6.86543 18.0983 6.60173 17.3072 6.07433L16.2036 5.33862" stroke="#01A85A" stroke-width="1.55219" stroke-linejoin="round"/>
<path d="M0.810547 8.05493L7.06992 11.8106C8.43172 12.6276 9.11263 13.0362 9.86501 13.0362C10.6174 13.0362 11.2983 12.6276 12.6601 11.8106L18.9195 8.05493" stroke="#01A85A" stroke-width="1.55219" stroke-linejoin="round"/>
<path d="M3.52734 9.86525V4.43258C3.52734 2.72525 3.52734 1.87159 4.05774 1.34119C4.58814 0.810791 5.4418 0.810791 7.14913 0.810791H12.5818C14.2891 0.810791 15.1428 0.810791 15.6732 1.34119C16.2036 1.87159 16.2036 2.72525 16.2036 4.43258V9.86525" stroke="#01A85A" stroke-width="1.55219"/>
<path d="M8.05371 8.05493H11.6755M8.05371 4.43315H11.6755" stroke="#01A85A" stroke-width="1.55219" stroke-linecap="round" stroke-linejoin="round"/>
</svg>
