<svg width="129" height="99" viewBox="0 0 129 99" fill="none" xmlns="http://www.w3.org/2000/svg">
<path d="M125.241 90.25C129.83 90.25 133.481 87.3619 136.759 83.3235C143.468 75.0566 132.452 68.4501 128.25 65.2147C123.979 61.9257 119.21 60.0624 114.375 59.625M108.25 47.375C116.707 47.375 123.562 40.5194 123.562 32.0625C123.562 23.6056 116.707 16.75 108.25 16.75" stroke="#C1C1C1" stroke-opacity="0.3" stroke-width="8" stroke-linecap="round"/>
<path d="M17.759 90.25C13.1695 90.25 9.51909 87.3619 6.24147 83.3235C-0.468208 75.0566 10.5481 68.4501 14.7497 65.2147C19.0208 61.9257 23.7898 60.0624 28.625 59.625M31.6875 47.375C23.2306 47.375 16.375 40.5194 16.375 32.0625C16.375 23.6056 23.2306 16.75 31.6875 16.75" stroke="#C1C1C1" stroke-opacity="0.3" stroke-width="8" stroke-linecap="round"/>
<path d="M47.5133 72.556C41.2549 76.4259 24.8458 84.3277 34.84 94.2155C39.7221 99.0456 45.1596 102.5 51.9957 102.5H91.0043C97.8404 102.5 103.278 99.0456 108.16 94.2155C118.154 84.3277 101.745 76.4259 95.4867 72.556C80.8109 63.4813 62.1891 63.4813 47.5133 72.556Z" stroke="#C1C1C1" stroke-opacity="0.3" stroke-width="8" stroke-linecap="round" stroke-linejoin="round"/>
<path d="M92.9375 25.9375C92.9375 37.7771 83.3396 47.375 71.5 47.375C59.6604 47.375 50.0625 37.7771 50.0625 25.9375C50.0625 14.0979 59.6604 4.5 71.5 4.5C83.3396 4.5 92.9375 14.0979 92.9375 25.9375Z" stroke="#C1C1C1" stroke-opacity="0.3" stroke-width="8"/>
</svg>
