<svg width="42" height="32" viewBox="0 0 42 32" fill="none" xmlns="http://www.w3.org/2000/svg">
<path d="M36.3546 26.5C37.6659 26.5 38.7088 25.6748 39.6453 24.521C41.5623 22.159 38.4148 20.2715 37.2144 19.3471C35.994 18.4073 34.6315 17.875 33.25 17.75M31.5 14.25C33.9162 14.25 35.875 12.2912 35.875 9.875C35.875 7.45875 33.9162 5.5 31.5 5.5" stroke="#01A85A" stroke-width="3" stroke-linecap="round"/>
<path d="M5.64543 26.5C4.33415 26.5 3.29117 25.6748 2.3547 24.521C0.437655 22.159 3.58517 20.2715 4.78563 19.3471C6.00596 18.4073 7.36852 17.875 8.75 17.75M9.625 14.25C7.20875 14.25 5.25 12.2912 5.25 9.875C5.25 7.45875 7.20875 5.5 9.625 5.5" stroke="#01A85A" stroke-width="3" stroke-linecap="round"/>
<path d="M14.1467 21.4446C12.3585 22.5502 7.67022 24.8079 10.5257 27.633C11.9206 29.013 13.4742 30 15.4273 30H26.5727C28.5258 30 30.0794 29.013 31.4743 27.633C34.3298 24.8079 29.6415 22.5502 27.8533 21.4446C23.6602 18.8518 18.3398 18.8518 14.1467 21.4446Z" stroke="#01A85A" stroke-width="3" stroke-linecap="round" stroke-linejoin="round"/>
<path d="M27.125 8.125C27.125 11.5077 24.3827 14.25 21 14.25C17.6173 14.25 14.875 11.5077 14.875 8.125C14.875 4.74226 17.6173 2 21 2C24.3827 2 27.125 4.74226 27.125 8.125Z" stroke="#01A85A" stroke-width="3"/>
</svg>
