<svg width="19" height="18" viewBox="0 0 19 18" fill="none" xmlns="http://www.w3.org/2000/svg">
<circle cx="9.5" cy="9" r="8.5" stroke="#01A85A"/>
<path d="M9.836 13.56C9.004 13.56 8.25733 13.3787 7.596 13.016C6.94533 12.6427 6.43333 12.136 6.06 11.496C5.68667 10.8453 5.5 10.104 5.5 9.272C5.5 8.42933 5.68667 7.688 6.06 7.048C6.43333 6.408 6.94533 5.90667 7.596 5.544C8.25733 5.18133 9.004 5 9.836 5C10.5507 5 11.196 5.13867 11.772 5.416C12.348 5.69333 12.8013 6.10933 13.132 6.664L12.284 7.24C11.996 6.81333 11.6387 6.49867 11.212 6.296C10.7853 6.09333 10.3213 5.992 9.82 5.992C9.22267 5.992 8.684 6.13067 8.204 6.408C7.724 6.67467 7.34533 7.05333 7.068 7.544C6.79067 8.03467 6.652 8.61067 6.652 9.272C6.652 9.93333 6.79067 10.5093 7.068 11C7.34533 11.4907 7.724 11.8747 8.204 12.152C8.684 12.4187 9.22267 12.552 9.82 12.552C10.3213 12.552 10.7853 12.4507 11.212 12.248C11.6387 12.0453 11.996 11.736 12.284 11.32L13.132 11.896C12.8013 12.44 12.348 12.856 11.772 13.144C11.196 13.4213 10.5507 13.56 9.836 13.56Z" fill="#01A85A"/>
</svg>
