<svg width="30" height="34" viewBox="0 0 30 34" fill="none" xmlns="http://www.w3.org/2000/svg">
<path d="M28.5 15.5V14C28.5 8.34315 28.5 5.51472 26.6393 3.75736C24.7785 2 21.7837 2 15.7941 2L14.2059 2C8.21627 2 5.22147 2 3.36073 3.75736C1.5 5.51472 1.5 8.34314 1.5 14L1.5 20C1.5 25.6569 1.5 28.4853 3.36073 30.2426C5.22147 32 8.21627 32 14.2059 32H15" stroke="#141B34" stroke-width="2.5" stroke-linecap="round"/>
<path d="M9 9.5H21" stroke="#141B34" stroke-width="2.5" stroke-linecap="round"/>
<path d="M9 17H16.5" stroke="#141B34" stroke-width="2.5" stroke-linecap="round"/>
<path d="M28.5 29.9706L28.5 24.5C28.5 22.3558 26.4853 20 24 20C21.5147 20 19.5 22.3558 19.5 24.5L19.5 29.75C19.5 30.9195 20.5989 32 21.9545 32C23.3102 32 24.4091 30.9195 24.4091 29.75L24.4091 25.6471" stroke="#141B34" stroke-width="2.5" stroke-linecap="round"/>
</svg>
