<svg width="34" height="34" viewBox="0 0 34 34" fill="none" xmlns="http://www.w3.org/2000/svg">
<path d="M32 9.25C32.6904 9.25 33.25 8.69036 33.25 8C33.25 7.30964 32.6904 6.75 32 6.75V9.25ZM20 6.75C19.3096 6.75 18.75 7.30964 18.75 8C18.75 8.69036 19.3096 9.25 20 9.25V6.75ZM27.25 2C27.25 1.30964 26.6904 0.75 26 0.75C25.3096 0.75 24.75 1.30964 24.75 2H27.25ZM24.75 14C24.75 14.6904 25.3096 15.25 26 15.25C26.6904 15.25 27.25 14.6904 27.25 14H24.75ZM32 6.75H26V9.25H32V6.75ZM26 6.75H20V9.25H26V6.75ZM24.75 2V8H27.25V2H24.75ZM24.75 8V14H27.25V8H24.75Z" fill="#141B34"/>
<path d="M16.25 3.5C9.53249 3.5 6.17373 3.5 4.08686 5.58686C2 7.67373 2 11.0325 2 17.75C2 24.4675 2 27.8263 4.08686 29.9131C6.17373 32 9.53249 32 16.25 32C22.9675 32 26.3263 32 28.4131 29.9131C30.5 27.8263 30.5 24.4675 30.5 17.75V17" stroke="#141B34" stroke-width="2.5" stroke-linecap="round"/>
<path d="M2 20.2032C2.92853 20.0683 3.86726 20.0017 4.80757 20.004C8.78548 19.9199 12.666 21.1594 15.7566 23.5013C18.623 25.6732 20.6371 28.6623 21.5 32" stroke="#141B34" stroke-width="2.5" stroke-linejoin="round"/>
<path d="M30.5 24.3443C28.7368 23.4513 26.9132 22.9982 25.0793 23.0001C22.3017 22.9891 19.5523 24.01 17 26" stroke="#141B34" stroke-width="2.5" stroke-linejoin="round"/>
</svg>
